<svg xmlns="http://www.w3.org/2000/svg" width="219" height="96" viewBox="0 0 219 96" fill="none"><g clip-path="url(#clip0_7_50)"><path d="M173.074 66.6937C173.074 73.3272 172.125 79.7257 170.36 85.7411C169.385 89.072 168.158 92.2877 166.705 95.36H162.929L161.402 95.3577L146.797 95.3506L65.2332 95.3083C63.8159 93.9802 62.3343 91.3192 62.0084 90.7175H57.1332C56.6718 89.7866 56.2319 88.844 55.8181 87.8896C55.5826 87.1797 55.3591 86.4628 55.1474 85.7387C53.3828 79.7234 52.4339 73.3249 52.4339 66.6913C52.4339 65.06 52.491 63.4403 52.6052 61.8395C54.7669 31.208 77.2335 6.58718 105.76 3.09175C108.055 2.80967 110.388 2.66628 112.754 2.66628C144.531 2.66628 170.567 28.7469 172.903 61.8419C173.014 63.4427 173.074 65.06 173.074 66.6937Z" fill="#F3E61C"></path><path d="M158.358 90.6493C158.365 90.6328 158.37 90.614 158.377 90.5976C158.664 90.6234 159.14 90.6399 159.73 90.6493H159.865C160.917 90.6681 162.291 90.6634 163.597 90.6516H158.358V90.6493Z" fill="#301E4B"></path><path d="M158.358 90.527C158.343 90.567 158.327 90.607 158.313 90.6516C157.751 92.0714 155.708 95.1649 155.708 95.1649C155.708 95.1649 151.777 95.2425 145.554 95.3506C145.368 95.3553 145.18 95.3577 144.99 95.36H65.0145C64.9954 95.3436 64.9788 95.3248 64.9598 95.3059C63.559 93.9449 62.0941 91.2158 61.773 90.5999C61.7373 90.5294 61.7136 90.4871 61.7088 90.4753L158.358 90.5247V90.527Z" fill="#301E4B"></path><path d="M61.7088 90.5999H56.9548L61.7088 90.5976C61.7088 90.5976 61.7088 90.5976 61.7088 90.5999Z" fill="#301E4B"></path><path d="M169.892 62.7774C169.892 70.7956 168.441 78.4587 165.799 85.4966C165.14 87.2549 164.405 88.9756 163.599 90.6516H159.868L158.315 90.6493L61.7754 90.5999H56.9572C56.5006 89.6455 56.0678 88.6794 55.6587 87.7015C55.3543 86.9752 55.0618 86.2394 54.7836 85.4966C52.1414 78.4587 50.6907 70.7956 50.6907 62.7774C50.6907 62.1804 50.6979 61.588 50.7169 60.9933C51.5635 29.2828 75.1193 3.5031 105.001 0.75988C106.742 0.600034 108.506 0.517761 110.288 0.517761C142.636 0.517761 168.964 27.4352 169.866 60.9933C169.882 61.5857 169.892 62.1804 169.892 62.7774Z" fill="#301E4B"></path><path d="M204.225 58.3488H15.596V85.4966H204.225V58.3488Z" fill="#301E4B"></path><path d="M43.6561 90.9196H23.8578L22.4333 86.2888H20.6972L19.2727 90.9196H0L13.2036 54.1975H30.4525L43.6561 90.9196Z" fill="#301E4B"></path><path d="M57.7372 90.9196H44.4837C42.0128 90.9196 39.7036 90.5412 37.6155 89.7913C35.3753 88.9874 33.4133 87.7556 31.7842 86.1266C30.1671 84.5094 28.9114 82.4995 28.0553 80.1512C27.2515 77.9463 26.8424 75.4052 26.8424 72.5962C26.8424 69.7871 27.2491 67.2837 28.0505 65.0694C28.9019 62.714 30.1504 60.6948 31.7628 59.0658C33.3871 57.425 35.342 56.1768 37.5799 55.3564C39.6774 54.5877 42.0009 54.1975 44.4813 54.1975H57.7349V71.2493H45.9058C45.2257 71.2493 44.8904 71.3503 44.7667 71.3997C44.7167 71.536 44.6192 71.8933 44.6192 72.5962C44.6192 73.2426 44.7049 73.5811 44.7524 73.7198C44.8832 73.7692 45.2257 73.8679 45.9058 73.8679H57.7349V90.9196H57.7372Z" fill="#301E4B"></path><path d="M87.0934 90.9196H67.2951L65.8706 86.2888H64.1345L62.71 90.9196H43.4373L56.6385 54.1975H63.9419L65.0501 50.9348L66.1465 54.1975H73.8898L87.0934 90.9196Z" fill="#301E4B"></path><path d="M88.6559 54.1975H70.9171V90.9196H88.6559V54.1975Z" fill="#301E4B"></path><path d="M114.178 90.9196H99.4385L96.4895 86.7966V90.9196H79.0504V54.1975H93.7261L96.7012 58.283V54.1975H114.178V90.9196Z" fill="#301E4B"></path><path d="M141.658 90.9196H121.862L120.438 86.2888H118.699L117.277 90.9196H98.0021L111.206 54.1975H118.507L119.617 50.9348L120.711 54.1975H128.457L141.658 90.9196Z" fill="#301E4B"></path><path d="M146.709 90.9196H128.933V71.2493H119.225V54.1975H156.453V71.2493H146.709V90.9196Z" fill="#301E4B"></path><path d="M159.525 54.1975H141.787V90.9196H159.525V54.1975Z" fill="#301E4B"></path><path d="M176.315 90.9196H163.062C160.591 90.9196 158.282 90.5412 156.194 89.7913C153.953 88.9874 151.991 87.7556 150.362 86.1266C148.745 84.5094 147.489 82.4995 146.633 80.1512C145.829 77.9463 145.42 75.4052 145.42 72.5962C145.42 69.7871 145.827 67.2837 146.629 65.0694C147.48 62.714 148.728 60.6948 150.341 59.0658C151.965 57.425 153.92 56.1768 156.158 55.3564C158.255 54.5877 160.579 54.1975 163.059 54.1975H176.313V71.2493H164.484C163.804 71.2493 163.468 71.3503 163.345 71.3997C163.295 71.536 163.197 71.8933 163.197 72.5962C163.197 73.2426 163.283 73.5811 163.33 73.7198C163.461 73.7692 163.804 73.8679 164.484 73.8679H176.313V90.9196H176.315Z" fill="#301E4B"></path><path d="M180.413 91.4744C177.787 91.4744 175.267 90.9643 172.922 89.9558C170.639 88.9756 168.608 87.624 166.888 85.9409C165.159 84.2508 163.778 82.248 162.779 79.9937C161.756 77.6854 161.238 75.196 161.238 72.5962C161.238 69.9963 161.754 67.4717 162.774 65.154C163.77 62.8903 165.15 60.8781 166.872 59.1739C168.593 57.4697 170.646 56.1016 172.948 55.1307C175.288 54.1435 177.797 53.6428 180.413 53.6428C183.029 53.6428 185.538 54.1435 187.876 55.1307C190.178 56.1039 192.22 57.465 193.952 59.1739C195.683 60.8875 197.06 62.9067 198.045 65.1822C199.043 67.4929 199.55 69.9893 199.55 72.5962C199.55 75.2031 199.041 77.6642 198.04 79.9655C197.053 82.2316 195.671 84.2414 193.938 85.9409C192.216 87.6263 190.187 88.9756 187.904 89.9558C185.559 90.9643 183.038 91.4744 180.413 91.4744ZM180.432 70.8778C180.182 70.8778 179.971 70.9178 179.766 71.0048C179.516 71.1106 179.321 71.2351 179.155 71.3973C179.012 71.536 178.9 71.7053 178.808 71.9262C178.717 72.1378 178.677 72.3564 178.677 72.615C178.677 72.8736 178.715 73.071 178.798 73.2614C178.893 73.48 179.007 73.6516 179.157 73.7974C179.324 73.9596 179.516 74.0842 179.768 74.1899C179.971 74.2746 180.182 74.3145 180.434 74.3145C180.751 74.3145 180.941 74.2487 181.055 74.1993C181.286 74.1006 181.464 73.9831 181.616 73.8326C181.771 73.6798 181.89 73.4965 181.992 73.2614C182.075 73.071 182.113 72.8665 182.113 72.615C182.113 72.3635 182.07 72.1378 181.98 71.9262C181.878 71.6888 181.764 71.5102 181.614 71.3621C181.462 71.2116 181.283 71.0941 181.053 70.9954C180.867 70.9155 180.67 70.8802 180.432 70.8802V70.8778Z" fill="#301E4B"></path><path d="M204.325 90.9196H184.475V73.8679H190.073C189.234 72.9793 188.565 72.0743 188.052 71.1341C187.145 69.4792 186.686 67.6104 186.686 65.5818C186.686 64.1009 186.977 62.6529 187.552 61.2824C188.113 59.9426 188.905 58.7367 189.911 57.7047C190.934 56.6516 192.175 55.803 193.597 55.1872C195.053 54.5572 196.658 54.2351 198.368 54.2351H218.219V71.2869H212.559C213.305 72.0955 213.945 72.9535 214.468 73.8561C215.491 75.6215 216.007 77.5514 216.007 79.5988C216.007 81.0797 215.717 82.5254 215.144 83.8982C214.582 85.2428 213.791 86.4463 212.787 87.4806C211.738 88.5619 210.461 89.4175 208.996 90.024C207.555 90.6187 205.983 90.922 204.325 90.922V90.9196ZM206.012 79.1616C205.84 79.7939 205.567 80.391 205.201 80.9363C205.384 80.8564 205.517 80.7718 205.607 80.6778C205.752 80.5297 205.862 80.3604 205.95 80.1465C206.026 79.9632 206.061 79.7916 206.061 79.5965C206.061 79.4366 206.045 79.2956 206.012 79.1616ZM197.488 64.2302C197.315 64.3148 197.179 64.4065 197.079 64.5099C196.934 64.6603 196.825 64.8272 196.739 65.0364C196.663 65.2198 196.63 65.3867 196.63 65.5818C196.63 65.7581 196.642 65.9179 196.668 66.0566C196.839 65.4102 197.115 64.7943 197.491 64.2302H197.488Z" fill="#301E4B"></path><path d="M36.6143 86.0044H27.544L26.1195 81.3736H17.0135L15.5889 86.0044H7.04416L16.7138 59.1104H26.9447L36.6143 86.0044ZM18.5498 75.3747H24.5832L21.5843 70.1303L18.5498 75.3747Z" fill="white"></path><path d="M52.7669 66.334H45.9082C43.8844 66.334 42.3338 66.8535 41.2613 67.8901C40.1864 68.9268 39.6489 70.497 39.6489 72.5938C39.6489 74.6906 40.1864 76.2186 41.2613 77.2434C42.3362 78.2683 43.8844 78.7808 45.9082 78.7808H52.7669V86.0044H44.4837C42.5836 86.0044 40.8618 85.727 39.3112 85.1699C37.7606 84.6151 36.4312 83.7806 35.3206 82.6688C34.2076 81.5569 33.3467 80.163 32.7355 78.4823C32.122 76.8039 31.8176 74.8387 31.8176 72.5915C31.8176 70.3442 32.1244 68.412 32.7355 66.7195C33.3467 65.027 34.21 63.6213 35.3206 62.4954C36.4312 61.3718 37.763 60.5255 39.3112 59.959C40.8594 59.3901 42.5836 59.1081 44.4837 59.1081H52.7669V66.3317V66.334Z" fill="white"></path><path d="M80.0493 86.0044H70.9789L69.5544 81.3736H60.4484L59.0238 86.0044H50.4791L60.1487 59.1104H70.3796L80.0493 86.0044ZM61.9847 75.3747H68.0181L65.0192 66.4468L61.9847 75.3747Z" fill="white"></path><path d="M83.6855 86.0044H75.8898V59.1104H83.6855V86.0044Z" fill="white"></path><path d="M109.206 86.0044H102.009L91.5144 71.3339V86.0044H84.0184V59.1104H91.1767L101.672 73.52V59.1104H109.206V86.0044Z" fill="#F3E61C"></path><path d="M134.616 86.0044H125.546L124.122 81.3736H115.016L113.591 86.0044H105.046L114.716 59.1104H124.947L134.616 86.0044ZM116.552 75.3747H122.585L119.586 66.4468L116.552 75.3747Z" fill="#F3E61C"></path><path d="M151.48 66.334H141.737V86.0044H133.903V66.334H124.195V59.1104H151.48V66.334Z" fill="#F3E61C"></path><path d="M154.555 86.0044H146.759V59.1104H154.555V86.0044Z" fill="#F3E61C"></path><path d="M171.345 66.334H164.486C162.462 66.334 160.912 66.8535 159.839 67.8901C158.764 68.9268 158.227 70.497 158.227 72.5938C158.227 74.6906 158.764 76.2186 159.839 77.2434C160.914 78.2683 162.462 78.7808 164.486 78.7808H171.345V86.0044H163.062C161.162 86.0044 159.44 85.727 157.889 85.1699C156.339 84.6151 155.009 83.7806 153.899 82.6688C152.786 81.5569 151.925 80.163 151.314 78.4823C150.7 76.8039 150.396 74.8387 150.396 72.5915C150.396 70.3442 150.702 68.412 151.314 66.7195C151.925 65.027 152.788 63.6213 153.899 62.4954C155.009 61.3718 156.341 60.5255 157.889 59.959C159.437 59.3901 161.162 59.1081 163.062 59.1081H171.345V66.3317V66.334Z" fill="#F3E61C"></path><path d="M180.413 58.5557C182.361 58.5557 184.199 58.92 185.923 59.6487C187.647 60.3774 189.153 61.3788 190.439 62.6482C191.726 63.9199 192.737 65.4078 193.474 67.1121C194.211 68.8163 194.58 70.6451 194.58 72.5938C194.58 74.5425 194.211 76.329 193.474 78.0215C192.737 79.714 191.723 81.1879 190.439 82.4478C189.153 83.7078 187.647 84.7068 185.923 85.4473C184.199 86.1877 182.363 86.5591 180.413 86.5591C178.463 86.5591 176.627 86.1877 174.903 85.4473C173.178 84.7068 171.673 83.7054 170.386 82.4478C169.1 81.1879 168.082 79.714 167.333 78.0215C166.584 76.3314 166.208 74.5214 166.208 72.5938C166.208 70.6663 166.584 68.8163 167.333 67.1121C168.082 65.4078 169.1 63.9199 170.386 62.6482C171.673 61.3765 173.178 60.3751 174.903 59.6487C176.627 58.92 178.463 58.5557 180.413 58.5557ZM180.432 65.965C179.509 65.965 178.639 66.1389 177.816 66.4845C176.993 66.83 176.277 67.3025 175.666 67.8972C175.055 68.4919 174.577 69.1971 174.227 70.0152C173.878 70.8332 173.704 71.6982 173.704 72.615C173.704 73.5317 173.878 74.3921 174.227 75.196C174.577 75.9999 175.055 76.7004 175.666 77.2952C176.277 77.8899 176.993 78.36 177.816 78.7079C178.639 79.0535 179.509 79.2274 180.432 79.2274C181.355 79.2274 182.22 79.0535 183.029 78.7079C183.84 78.36 184.544 77.8899 185.141 77.2952C185.738 76.7004 186.211 75.9999 186.56 75.196C186.91 74.3921 187.084 73.5317 187.084 72.615C187.084 71.6982 186.91 70.8332 186.56 70.0152C186.211 69.1971 185.738 68.4919 185.141 67.8972C184.544 67.3025 183.84 66.8324 183.029 66.4845C182.218 66.1389 181.355 65.965 180.432 65.965Z" fill="#F3E61C"></path><path d="M213.243 66.3716H202.787C202.361 66.3716 202.03 66.4962 201.793 66.743C201.555 66.9899 201.436 67.2743 201.436 67.594C201.436 67.8666 201.498 68.1064 201.624 68.3156C201.747 68.5248 201.973 68.7669 202.299 69.0373L207.695 73.4824C208.744 74.3474 209.562 75.2853 210.149 76.2985C210.737 77.3116 211.029 78.4094 211.029 79.5965C211.029 80.4356 210.868 81.2443 210.542 82.0224C210.216 82.8004 209.767 83.4845 209.193 84.0792C208.618 84.6715 207.912 85.1417 207.077 85.4872C206.24 85.8328 205.322 86.0067 204.323 86.0067H189.445V78.7831H199.902C200.301 78.7831 200.627 78.6656 200.877 78.4329C201.127 78.2002 201.253 77.9087 201.253 77.5631C201.253 77.3163 201.196 77.1024 201.084 76.9167C200.972 76.731 200.777 76.503 200.504 76.2327L194.958 71.6841C193.783 70.6992 192.939 69.7378 192.427 68.7999C191.916 67.8643 191.659 66.79 191.659 65.5818C191.659 64.7426 191.821 63.9363 192.147 63.1606C192.47 62.3849 192.922 61.7009 193.495 61.1085C194.071 60.5161 194.77 60.0436 195.595 59.6863C196.42 59.329 197.343 59.1504 198.368 59.1504H213.246V66.374L213.243 66.3716Z" fill="#F3E61C"></path><path d="M124.783 33.7044C124.783 41.6497 118.076 48.0858 109.8 48.0858C101.524 48.0858 94.8248 41.6497 94.8248 33.7044H124.783Z" fill="#FCFCFC"></path><path d="M107.695 27.3576C107.695 28.6505 107.355 29.8658 106.749 30.9118C106.587 31.1963 106.409 31.469 106.214 31.7299H94.4943C93.5596 30.5169 93.0079 28.9984 93.0079 27.3576C93.0079 24.102 95.1768 21.3493 98.1614 20.4232H98.1662C98.8582 20.2093 99.5883 20.0964 100.352 20.0964C100.832 20.0964 101.298 20.1388 101.752 20.2304C105.139 20.8722 107.695 23.8222 107.695 27.3576Z" fill="#733D8F"></path><path d="M113.993 31.7322L121.047 20.6935C124.345 21.3987 126.818 24.3065 126.818 27.7831C126.818 29.2382 126.386 30.5945 125.634 31.7346H113.995L113.993 31.7322Z" fill="#733D8F"></path><path d="M113.993 31.7322L121.047 20.6935C120.105 16.2461 116.119 12.9105 111.344 12.9105C107.206 12.9105 103.657 15.4116 102.176 18.9775C102.268 18.9728 102.354 18.9728 102.447 18.9728C106.335 18.9728 109.484 22.7997 109.484 27.5269C109.484 29.0548 109.153 30.4934 108.571 31.7346H113.995L113.993 31.7322Z" fill="#733D8F"></path><path d="M113.582 33.0047H113.574V32.9264L113.582 33.0047Z" fill="black"></path><path d="M86.399 55.1895L88.8009 58.1372H70.3844V57.827L86.399 55.1895Z" fill="white"></path><path d="M131.917 55.1895L134.319 58.1372H115.9V57.827L131.917 55.1895Z" fill="#FDC801"></path><path d="M18.5711 75.3747H24.5618L21.5462 66.4468L18.5711 75.3747Z" fill="#301E4B"></path></g><defs><clipPath id="clip0_7_50"><rect width="218.216" height="94.9645" fill="white" transform="translate(0 0.517761)"></rect></clipPath></defs></svg>